# xmcd
# 
# Track frame offsets:
#     150
#     19876
#     47927
#     71778
#     93079
#     116930
#     138906
#     153382
#     185108
# 
# Disc length: 2824
# 
# Revision: 5
# Processed by: cddbd v1.5.2PL0 Copyright (c) Steve Scherf et al.
# Submitted via: fre:ac v1.1beta1pre5
# 
DISCID=810b0609
DTITLE=Nalepa Tadeusz (I Dzem) - Nalepa Tadeusz (I Dzem)_Numero Uno
DYEAR=1988
DGENRE=Blues
TTITLE0=Ten O Tobie Film
TTITLE1=Noc Jak Owoc
TTITLE2=Pojdziesz Tylko Z Cieniem
TTITLE3=Zostan W Moim Snie
TTITLE4=Naprzod Czy W Tyl
TTITLE5=Wstan I Idz
TTITLE6=Zly
TTITLE7=Piesci Ze Stali
TTITLE8=Hold
EXTD=
EXTT0=
EXTT1=
EXTT2=
EXTT3=
EXTT4=
EXTT5=
EXTT6=
EXTT7=
EXTT8=
PLAYORDER=
